<svg width="313" height="310" viewBox="0 0 313 310" fill="none" xmlns="http://www.w3.org/2000/svg">
<g filter="url(#filter0_d)">
<path fill-rule="evenodd" clip-rule="evenodd" d="M46.9603 217.119C47.9154 219.252 50.0348 220.625 52.3722 220.625C56.7019 220.625 59.5717 216.135 57.7536 212.206L35.1971 163.455C33.8823 160.613 33.9744 157.319 35.446 154.556L56.8816 114.298C58.9376 110.437 56.1393 105.777 51.7649 105.777C49.631 105.777 47.6697 106.949 46.6592 108.829L24.9781 149.152C24.1745 150.646 22.6149 151.578 20.918 151.578C18.3722 151.578 16.3083 149.514 16.3083 146.968V65.3846C16.3083 62.1433 13.6807 59.5156 10.4393 59.5156C7.19795 59.5156 4.57031 62.1433 4.57031 65.3846V214.756C4.57031 217.998 7.19795 220.625 10.4393 220.625C13.6807 220.625 16.3083 217.998 16.3083 214.756V170.227C16.3083 167.681 18.3718 165.618 20.9172 165.618C22.734 165.618 24.3813 166.685 25.1237 168.343L46.9603 217.119ZM89.8397 105.547C86.4712 105.547 83.7406 108.278 83.7406 111.646V214.526C83.7406 217.895 86.4712 220.625 89.8397 220.625C93.2082 220.625 95.9389 217.894 95.9389 214.526V111.646C95.9389 108.278 93.2082 105.547 89.8397 105.547ZM137.06 186.562C137.06 190.245 137.673 193.62 138.901 196.689C140.282 199.604 142.123 202.136 144.425 204.284C146.726 206.432 149.335 208.12 152.25 209.348C155.319 210.422 158.541 210.959 161.916 210.959C163.451 210.959 165.369 210.805 167.67 210.498C169.972 210.038 172.197 209.578 174.345 209.117C175.27 208.9 176.205 208.672 177.15 208.435C180.112 207.692 183.181 209.291 184.185 212.176C185.234 215.192 183.649 218.516 180.57 219.361C179.47 219.662 178.392 219.93 177.337 220.165C174.882 220.779 172.197 221.316 169.281 221.776C166.52 222.236 164.065 222.466 161.916 222.466C156.853 222.466 152.096 221.623 147.647 219.935C143.35 218.093 139.515 215.562 136.139 212.34C132.917 209.117 130.308 205.358 128.314 201.062C126.472 196.612 125.552 191.779 125.552 186.562V138.459C125.552 133.242 126.472 128.486 128.314 124.19C130.308 119.74 132.917 115.981 136.139 112.912C139.361 109.843 143.12 107.465 147.417 105.777C151.866 103.936 156.623 103.015 161.686 103.015C164.141 103.015 166.673 103.322 169.281 103.936C172.043 104.55 174.575 105.24 176.877 106.007C178.108 106.349 179.323 106.722 180.524 107.124C183.069 107.979 184.389 110.716 183.667 113.302C182.853 116.22 179.763 117.851 176.838 117.063C176.242 116.902 175.641 116.746 175.035 116.594C172.887 115.981 170.662 115.444 168.361 114.983C166.059 114.523 163.834 114.293 161.686 114.293C154.935 114.293 149.104 116.518 144.194 120.967C139.438 125.264 137.06 131.094 137.06 138.459V186.562ZM262.229 214.411C267.906 208.734 270.745 200.218 270.745 188.864C270.745 182.726 269.824 177.663 267.983 173.673C266.141 169.684 263.61 166.615 260.387 164.467C257.319 162.165 253.636 160.631 249.34 159.864C245.044 158.943 240.517 158.483 235.761 158.483C233.613 158.483 231.311 158.099 228.856 157.332C226.554 156.412 224.33 155.107 222.181 153.419C220.033 151.578 218.269 149.43 216.888 146.975C215.507 144.52 214.816 141.681 214.816 138.459C214.816 130.787 216.811 124.88 220.801 120.737C224.943 116.441 229.7 114.293 235.07 114.293H236.221C236.518 114.293 236.804 114.304 237.078 114.327C237.893 114.396 238.709 114.505 239.518 114.623C240.042 114.7 240.63 114.82 241.284 114.983C242.665 115.29 244.43 115.827 246.578 116.594C247.787 116.917 249.187 117.345 250.777 117.879C253.476 118.786 256.454 117.551 257.605 114.946C258.861 112.102 257.449 108.788 254.526 107.726L252.332 106.928C249.263 105.854 246.271 105.01 243.356 104.396C240.594 103.629 237.909 103.245 235.3 103.245C226.401 103.245 218.883 106.161 212.745 111.991C206.761 117.669 203.769 126.108 203.769 137.309C203.769 143.599 204.613 148.816 206.301 152.959C207.989 157.102 210.367 160.478 213.436 163.086C216.658 165.541 220.494 167.306 224.943 168.38C229.393 169.3 234.38 169.761 239.904 169.761C241.898 169.761 244.046 170.144 246.348 170.911C248.803 171.525 250.951 172.599 252.792 174.134C254.787 175.515 256.398 177.356 257.626 179.657C259.007 181.959 259.697 184.721 259.697 187.943C259.697 195.768 257.856 201.752 254.173 205.895C250.491 210.038 245.964 212.109 240.594 212.109C238.599 212.109 236.451 211.956 234.15 211.649C232.001 211.189 229.777 210.498 227.475 209.578L213.524 203.963C210.772 202.856 207.635 204.111 206.407 206.813C205.096 209.696 206.463 213.089 209.406 214.259L223.102 219.705C226.017 220.932 228.933 221.776 231.848 222.236C234.763 222.697 237.602 222.927 240.364 222.927C249.263 222.927 256.552 220.088 262.229 214.411ZM300.09 223.016C304.646 223.016 308.34 219.322 308.34 214.766C308.34 210.209 304.646 206.516 300.09 206.516C295.534 206.516 291.84 210.209 291.84 214.766C291.84 219.322 295.534 223.016 300.09 223.016Z" fill="#9D4DF6"/>
</g>
<path d="M92.799 64.5117C111.33 58.7918 127.931 59.4991 130.672 66.6588C133.736 74.6534 118.578 88.2239 97.5654 96.2885C76.5523 104.353 56.2054 104.399 53.1271 96.4093C50.0634 88.4147 65.221 74.8443 86.2341 66.7797C88.4389 65.9381 90.6223 65.1836 92.799 64.5117Z" fill="#52B469"/>
<path opacity="0.2" d="M108.275 68.8414C110.564 68.7341 112.815 69.2747 114.59 70.445C115.313 70.9265 115.935 71.5332 116.432 72.1971C111.24 70.5472 101.436 71.9058 91.1227 76.1276C79.57 80.8584 71.0296 87.6723 69.7493 92.7161C69.3919 92.3226 69.0543 91.8922 68.8029 91.4327C68.5052 90.883 68.318 90.2809 68.3408 89.6835C68.7709 91.0051 69.4141 91.1055 69.4141 91.1055C72.1907 80.9449 100.223 68.5501 112.279 70.3932C111.208 69.4998 109.908 68.88 108.275 68.8414Z" fill="#231F20"/>
<path opacity="0.2" d="M93.655 67.2723C91.493 67.9396 89.2949 68.6986 87.1048 69.5357C67.6042 77.0207 53.1538 89.2292 53.6147 97.3506C53.4266 97.0542 53.2634 96.7341 53.1296 96.405C50.0659 88.4104 65.2235 74.8399 86.2366 66.7753C88.4415 65.9337 90.6249 65.1792 92.7868 64.5119C111.318 58.792 127.919 59.4993 130.66 66.659C130.886 67.2337 130.994 67.8447 131.028 68.4783C127.225 62.2102 111.318 61.8202 93.655 67.2723Z" fill="white"/>
<path d="M67.0732 74.3731C67.0732 74.3731 84.8234 63.3046 105.142 60.1905C103.095 55.6996 86.8769 29.6161 71.1795 24.0069C55.482 18.3977 45.9512 22.0161 43.4415 32.5686C40.9318 43.1211 41.44 41.9494 41.44 41.9494L43.0591 42.9155C43.0591 42.9155 47.3418 42.3346 47.4764 42.1964C47.6109 42.0582 52.5393 39.6027 52.5393 39.6027C52.5393 39.6027 57.95 39.9623 61.3047 45.6119C64.6537 51.2954 67.0732 74.3731 67.0732 74.3731Z" fill="#68E182"/>
<path d="M67.0685 74.3766C67.0685 74.3766 67.0559 74.2839 67.04 74.1277L66.8177 63.3875C72.1424 58.6672 87.9829 52.0059 98.7281 49.8169C102.11 54.6686 104.441 58.6692 105.137 60.194C84.8186 63.3082 67.0685 74.3766 67.0685 74.3766Z" fill="#5C5DF5"/>
<path d="M50.6012 34.1726C52.5918 35.5073 54.2806 37.2734 55.7331 39.1608C57.1901 41.063 58.4288 43.1452 59.4175 45.3047C59.7236 45.9834 60.5251 46.2837 61.2038 45.9775C61.8825 45.6714 62.1828 44.8699 61.8767 44.1912C61.8631 44.1471 61.8347 44.1075 61.8064 44.0679C60.4929 41.8477 58.9373 39.7827 57.1726 37.9272C55.4124 36.0865 53.4294 34.4111 51.1435 33.2159C50.8741 33.0735 50.5358 33.1779 50.3935 33.4474C50.276 33.6931 50.3521 33.9918 50.6012 34.1726Z" fill="#231F20"/>
<path d="M59.7708 41.0941C58.706 39.9407 57.5329 39.0625 56.2693 38.3088C55.6398 37.9393 54.9752 37.6129 54.2847 37.3589C53.5794 37.1094 52.8392 36.903 52.0041 37.0157C51.8038 37.0453 51.6682 37.2322 51.6978 37.4324C51.7183 37.6033 51.852 37.7231 52.0172 37.7366L52.0659 37.7377C52.6148 37.7938 53.2023 38.0795 53.7345 38.4469C54.2622 38.7995 54.7786 39.22 55.2452 39.6881C56.1842 40.5903 57.0225 41.6363 57.6028 42.6814C57.9678 43.342 58.7851 43.5891 59.4456 43.2241C60.1062 42.8591 60.3533 42.0419 59.9883 41.3813C59.9418 41.2829 59.8659 41.1936 59.7946 41.1189L59.7708 41.0941Z" fill="#231F20"/>
<path opacity="0.2" d="M100.377 59.7198C97.1697 52.7201 88.654 34.6814 62.3647 32.0193C62.3647 32.0193 64.3121 29.1952 71.1023 28.388C71.1023 28.388 59.9151 17.0374 47.8822 27.1627L49.4962 23.5717C54.2894 20.6263 61.5783 20.5995 71.1754 24.0323C85.7476 29.2317 100.786 52.1194 104.484 58.9354C103.136 59.1584 101.767 59.4199 100.377 59.7198Z" fill="white"/>
<path d="M75.5382 58.0174C79.3683 56.1265 83.84 54.2791 88.2656 52.752L91.3662 62.797L78.4889 67.5772L75.5382 58.0174Z" fill="#9D4DF6"/>
<path d="M91.6045 101.208C93.8841 100.504 96.1999 99.7089 98.5325 98.8117C121.677 89.9282 136.905 75.3856 133.193 65.7065C129.48 56.0275 108.442 55.4011 85.2787 64.2744C62.1343 73.158 46.9063 87.7006 50.6187 97.3796C53.9636 106.077 71.3084 107.472 91.6045 101.208ZM92.81 64.5111C111.341 58.7912 127.942 59.4985 130.683 66.6582C133.747 74.6528 118.589 88.2233 97.5763 96.2879C76.5632 104.352 56.2164 104.399 53.138 96.4087C50.0744 88.4141 65.232 74.8436 86.2451 66.779C88.4499 65.9374 90.6333 65.1829 92.81 64.5111Z" fill="#231F20"/>
<path d="M69.6891 31.4327C71.4555 31.258 73.3773 31.5346 75.1792 31.945C76.9857 32.37 78.7482 33.018 80.4396 33.8007C82.1411 34.5642 83.7557 35.5156 85.325 36.5293C86.112 37.0435 86.8492 37.6053 87.6112 38.1433L89.7923 39.8863L89.8546 39.9315C90.4333 40.3973 91.2876 40.2947 91.7533 39.716C92.219 39.1373 92.0852 38.8081 91.5111 38.3571C91.4873 38.3322 91.48 37.7868 91.4562 37.7619L89.0149 36.1153C88.1692 35.6192 87.3437 35.0847 86.4731 34.6124C84.7363 33.6826 82.9838 32.806 81.1193 32.1411C79.2697 31.4717 77.3782 30.9279 75.4326 30.6264C73.4769 30.3441 71.5326 30.2032 69.4994 30.557C69.255 30.6002 69.0889 30.8448 69.1321 31.0891C69.1753 31.3335 69.3859 31.494 69.6201 31.4701L69.6891 31.4327Z" fill="#231F20"/>
<path d="M70.1927 31.4371C73.3094 31.6188 87.521 35.963 93.7277 44.4855L92.7108 41.1911L88.4736 36.9093L83.9727 33.9654L78.5856 32.1165L72.4916 30.7436L70.0293 30.9076L70.1927 31.4371V31.4371Z" fill="#231F20"/>
<path opacity="0.2" d="M56.1232 40.7579L56.9088 39.8066L54.0368 36.0861L51.126 33.2313C58.552 35.9972 71.6253 48.1349 72.3113 71.4416C68.996 73.1737 67.0507 74.3863 67.0507 74.3863C67.0507 74.3863 64.6413 51.2893 61.272 45.6443C59.7521 43.0689 57.7988 41.5938 56.1232 40.7579Z" fill="#231F20"/>
<path opacity="0.2" d="M43.0379 42.9495L41.4188 41.9834C41.4188 41.9834 40.9106 43.1551 43.4203 32.6026C43.4902 32.3072 43.5646 32.0265 43.6391 31.7458L45.2863 31.2373C42.7091 34.578 44.171 39.5231 47.0893 37.9135C50.0075 36.304 50.6511 34.7361 50.3335 33.916L53.663 35.4656L55.5171 38.55L54.8566 40.2197C53.4756 39.7117 52.4887 39.6458 52.4887 39.6458C52.4887 39.6458 47.5603 42.1013 47.4258 42.2395C47.3207 42.3686 43.0379 42.9495 43.0379 42.9495Z" fill="#231F20"/>
<path d="M68.3874 75.0827C68.9343 61.3022 65.4536 47.5728 59.9034 41.6989C57.8203 39.4906 55.4847 38.343 52.9736 38.2965C50.2191 38.2446 47.7519 39.28 45.607 41.3596C44.8552 42.1072 43.9271 42.0231 43.326 41.6932C43.0565 41.5509 42.222 40.9869 42.4529 39.8041C43.9233 32.6169 47.496 23.7338 56.1052 22.1396C74.2866 18.7829 99.2955 47.7749 103.856 60.6715L106.398 59.7741C103.765 52.3393 95.7331 41.4001 86.8662 33.1832C80.3075 27.1211 67.5577 17.2837 55.6434 19.4953C45.5825 21.3443 41.4948 31.2724 39.8508 39.2542C39.4417 41.2168 40.3148 43.1059 42.0561 44.0504C43.8404 45.03 46.0333 44.7236 47.5065 43.2862C49.1041 41.73 50.9231 40.943 52.933 40.9831C54.6995 41.0177 56.3841 41.8831 57.9439 43.5441C62.9516 48.8606 66.2099 62.0787 65.6974 74.9787L68.3874 75.0827Z" fill="#231F20"/>
<path d="M95.0859 67.7727C113.617 62.0528 128.074 61.5072 130.403 67.3308C133.007 73.8333 114.41 73.0221 93.3157 80.8232C72.2213 88.6243 57.192 103.512 54.5742 97.0138C51.9711 90.5112 67.4141 77.8015 88.5085 70.0004C90.7217 69.1856 92.9092 68.4446 95.0859 67.7727Z" fill="#52B469"/>
<g filter="url(#filter1_d)">
<path d="M67.4645 89.1657C67.2401 88.2215 67.1569 87.137 67.6326 86.1728C67.7127 85.9913 67.9149 85.8921 68.1169 85.9321C68.3518 85.9765 68.5066 86.2024 68.4593 86.4347L68.4452 86.4858C68.3081 87.1966 68.5374 87.9691 68.8937 88.6524C69.1469 89.1233 70.5276 91.3356 70.8983 91.7359C76.1129 87.015 77.4409 83.1901 78.9201 82.3006C88.8194 76.6772 89.7811 76.23 95.1233 74.0259C99.4533 72.2396 108.477 71.2338 108.477 71.2338C108.477 71.2338 113.285 71.6019 116.57 71.4534C116.086 70.7666 114.41 68.3759 113.677 67.8814C111.32 66.2507 108.093 65.7639 105.132 66.4852C104.958 66.5285 104.784 66.4326 104.728 66.2661C104.667 66.0858 104.761 65.8995 104.944 65.8376C107.991 64.763 111.576 64.8665 114.563 66.5009C116.046 67.3136 117.483 68.4977 118.19 70.1287C121.232 77.1842 112.243 86.0898 98.7025 91.6797C87.7247 96.2039 76.6822 98.5098 70.7103 94.1278C69.8558 93.5045 69.2224 92.6983 68.6783 91.8775C68.1343 91.0103 67.7077 90.1189 67.4645 89.1657Z" fill="#231F20"/>
</g>
<path opacity="0.2" d="M117.826 69.8862C117.145 68.349 115.704 67.258 114.205 66.5227C111.182 65.0307 107.513 65.0422 104.361 66.1501C111.913 62.9585 124.377 67.0527 120.75 75.6456C118.868 78.4381 115.882 79.9189 112.606 81.9595C117.219 77.8611 119.413 73.5278 117.826 69.8862Z" fill="#231F20"/>
<path opacity="0.2" d="M67.6323 86.18C67.4927 86.9646 67.5834 87.7862 67.7709 88.5259C68.0337 89.5352 68.4642 90.4879 69.0293 91.3788C69.5894 92.255 70.2383 93.1176 71.1037 93.7924C73.1772 95.4197 78.3204 95.4759 81.2899 95.7028C78.0862 96.2105 73.9385 98.3653 70.2109 96.6433C66.0538 93.9228 66.6545 89.9187 67.6323 86.18Z" fill="#231F20"/>
<g filter="url(#filter2_ddd)">
<path d="M96.0167 80.0609C96.2312 83.423 93.6796 86.3224 90.3175 86.5369C86.9554 86.7514 84.056 84.1997 83.8415 80.8376C83.7158 78.867 84.5404 77.0553 85.9215 75.8501C86.8967 74.9991 88.1493 74.4504 89.5407 74.3616C92.9029 74.1471 95.8023 76.6988 96.0167 80.0609Z" fill="#9D4DF6"/>
</g>
<rect x="77.5156" y="75.0469" width="24.4216" height="5.69245" transform="rotate(-21.9557 77.5156 75.0469)" fill="#52B469"/>
<path d="M70.9206 91.8113L70.6755 90.418L70.2285 87.9237C70.1878 87.6966 70.5005 87.5925 70.6041 87.7986L71.4841 89.5501L73.9975 86.6903C83.8728 75.4537 98.5097 69.5926 113.411 70.9078L112.713 69.5121C112.623 69.3321 112.826 69.1468 112.997 69.2524L116.562 71.45C100.331 70.6886 84.5882 77.1125 73.5234 89.0121L70.9206 91.8113Z" fill="#49965A"/>
<path d="M4.57031 289.247C4.65263 288.177 4.73497 286.53 4.73497 285.131V265.867H7.61625V275.911H7.69856C8.68643 274.099 10.5798 272.947 13.1318 272.947C17.0833 272.947 19.8823 276.24 19.8823 281.097C19.8823 286.777 16.2601 289.658 12.7202 289.658C10.4152 289.658 8.60411 288.753 7.36927 286.695H7.28694L7.03999 289.247H4.57031ZM7.53393 282.908C7.53393 283.237 7.61623 283.649 7.69856 283.978C8.27481 285.954 9.92128 287.353 12.0617 287.353C15.1076 287.353 16.9187 284.884 16.9187 281.261C16.9187 278.051 15.2722 275.334 12.144 275.334C10.1683 275.334 8.35714 276.651 7.69856 278.874C7.61623 279.203 7.53393 279.615 7.53393 280.027V282.908Z" fill="#2D2E2D"/>
<path d="M24.2457 273.359L27.7033 282.744C28.0326 283.814 28.4442 285.049 28.6911 286.037H28.7735C29.1028 285.049 29.4321 283.897 29.7613 282.744L32.8896 273.359H35.9355L31.5724 284.72C29.5144 290.153 28.1149 292.952 26.1392 294.681C24.7397 295.916 23.3402 296.41 22.5993 296.574L21.8584 294.105C22.5993 293.858 23.5048 293.446 24.4104 292.705C25.2336 292.047 26.2215 290.976 26.8801 289.495C27.0447 289.165 27.127 289.001 27.127 288.836C27.127 288.671 27.0447 288.424 26.9624 288.095L21.0352 273.442H24.2457V273.359Z" fill="#2D2E2D"/>
<path d="M100.227 292.925C94.3825 286.915 94.3825 277.366 100.227 271.356C103.109 268.557 106.978 266.993 111.012 267.075C113.564 267.075 116.116 267.652 118.338 268.804C120.479 269.792 122.29 271.356 123.607 273.332L120.396 276.295C118.256 273.25 114.798 271.521 111.094 271.521C108.213 271.438 105.496 272.509 103.52 274.567C101.462 276.542 100.392 279.341 100.474 282.14C100.392 285.022 101.462 287.738 103.52 289.714C105.578 291.69 108.295 292.76 111.094 292.678C114.798 292.76 118.338 290.949 120.561 287.903L123.854 290.784C120.726 294.818 115.951 297.123 110.929 297.041C106.978 297.123 103.109 295.641 100.227 292.925Z" fill="#2D2E2D"/>
<path d="M126.078 297.121V266.662H130.359V278.105C131.923 275.965 134.475 274.73 137.109 274.812C139.332 274.73 141.472 275.553 143.119 277.117C144.848 278.928 145.753 281.316 145.589 283.785V296.874H141.225V285.02C141.225 281.233 139.167 278.846 136.121 278.846C132.993 278.846 130.524 281.316 130.524 284.444C130.524 284.608 130.524 284.855 130.524 285.02V296.874L126.078 297.121Z" fill="#2D2E2D"/>
<path d="M168.556 287.572H151.844C152.421 291.029 155.467 293.417 158.924 293.087C161.558 293.005 164.028 292.264 166.251 290.782L168.062 293.911C165.345 295.804 162.135 296.874 158.759 296.874C152.915 297.286 147.811 292.923 147.399 286.995C147.399 286.584 147.399 286.172 147.399 285.761C147.317 282.797 148.387 279.998 150.445 277.858C152.503 275.717 155.384 274.647 158.348 274.729C161.147 274.565 163.946 275.635 165.922 277.611C167.98 279.669 168.967 282.55 168.885 285.431C168.803 286.255 168.72 286.913 168.556 287.572ZM151.844 284.197H164.357C164.193 280.986 161.476 278.516 158.348 278.681C155.055 278.681 152.338 281.068 151.927 284.361V284.197H151.844Z" fill="#2D2E2D"/>
<path d="M173.824 293.994C169.543 289.548 169.543 282.551 173.824 278.106C176.047 275.965 179.01 274.895 182.056 274.977C186.172 274.813 189.959 277.035 191.935 280.575L188.313 282.551C187.078 280.246 184.69 278.846 182.138 278.764C180.245 278.682 178.352 279.423 177.034 280.74C174.4 283.621 174.4 287.984 177.034 290.866C178.352 292.183 180.163 292.924 182.056 292.924C184.608 292.924 186.995 291.524 188.313 289.301L191.935 291.359C188.395 296.875 181.068 298.522 175.553 294.982C174.976 294.57 174.4 294.158 173.906 293.747V293.994H173.824Z" fill="#2D2E2D"/>
<path d="M207.33 297.121L199.756 287.325L197.863 289.054V297.121H193.5V266.662H197.863V283.785L206.836 275.471H212.599L202.72 284.444L213.01 297.039L207.33 297.121Z" fill="#2D2E2D"/>
<path d="M245.775 277.448C247.422 279.259 248.327 281.729 248.163 284.199V297.123H243.8V284.939C243.8 281.153 241.906 279.012 238.86 279.012C235.897 279.012 233.427 281.4 233.427 284.445C233.427 284.61 233.427 284.857 233.427 285.022V297.041H229.064V284.939C229.064 281.153 227.17 278.93 224.125 278.93C221.079 278.93 218.691 281.4 218.691 284.445C218.691 284.61 218.691 284.857 218.691 285.022V297.041H214.328V275.472H218.609V278.601C219.926 276.213 222.396 274.731 225.112 274.814C227.829 274.731 230.381 276.213 231.698 278.601C233.427 276.131 236.308 274.731 239.272 274.814C241.824 274.731 244.129 275.637 245.775 277.448Z" fill="#2D2E2D"/>
<path d="M267.919 275.473H272.364V297.041H268.166V293.666C266.355 295.889 263.72 297.123 260.839 297.123C257.958 297.206 255.159 295.971 253.265 293.913C251.207 291.773 250.137 288.891 250.302 285.928C250.219 283.046 251.29 280.247 253.265 278.107C255.241 276.049 258.04 274.979 260.839 275.061C263.638 274.979 266.355 276.296 268.166 278.519L267.919 275.473ZM266.19 291.279C268.824 288.397 268.824 283.952 266.19 281.071C264.955 279.671 263.062 278.848 261.168 278.93C259.275 278.848 257.464 279.671 256.229 281.071C253.677 284.034 253.677 288.397 256.229 291.279C257.464 292.678 259.275 293.419 261.168 293.337C263.062 293.501 264.955 292.76 266.19 291.279Z" fill="#2D2E2D"/>
<path d="M274.836 297.121V275.552H278.952V278.598C280.105 276.293 282.492 274.894 285.044 274.976C285.867 274.976 286.773 275.058 287.596 275.305L287.184 279.586C286.443 279.257 285.62 279.175 284.797 279.175C281.422 279.175 279.117 281.48 279.117 286.007V297.039H274.836V297.121Z" fill="#2D2E2D"/>
<path d="M308.34 297.123H303.236L298.462 289.303L293.522 297.123H288.336L295.745 286.01L289.077 275.555H294.181L298.544 282.881L303.072 275.555H308.176L301.178 286.257L308.34 297.123Z" fill="#2D2E2D"/>
<path d="M64.2549 259.831C58.5746 259.831 54.0469 264.441 54.0469 270.039V286.833C54.0469 292.513 58.6569 297.041 64.2549 297.041H81.3779C87.0582 297.041 91.5859 292.431 91.5859 286.833V285.516C91.5859 283.623 90.0218 282.059 88.1284 282.059C86.235 282.059 84.6708 283.623 84.6708 285.516V286.833C84.6708 288.727 83.189 290.208 81.2956 290.208H64.1725C62.3614 290.208 60.7973 288.727 60.7973 286.833V270.286C60.7973 268.475 62.2791 266.911 64.0902 266.911H84.0946C88.293 266.911 91.9152 270.204 88.1284 275.884C91.2566 273.415 92.3268 269.134 90.845 265.429C89.1162 261.725 85.3294 259.502 81.2956 259.749L64.2549 259.831Z" fill="#55B948"/>
<path d="M84.0915 268.143C84.5854 269.049 84.3384 270.201 83.5152 270.86L73.7188 278.022L70.7552 274.235C69.6027 272.753 67.4623 272.424 65.9805 273.577C64.4987 274.729 64.1694 276.87 65.3219 278.351L70.3436 284.855C71.4961 286.337 73.5542 286.666 75.1183 285.513L86.5612 277.199C86.5612 277.199 88.2076 275.964 88.3722 275.799C92.1591 270.119 88.3722 266.826 84.3384 266.826H82.5274C83.2683 266.991 83.8445 267.485 84.1738 268.143" fill="#55B948"/>
<defs>
<filter id="filter0_d" x="0.570312" y="59.5156" width="311.77" height="171.5" filterUnits="userSpaceOnUse" color-interpolation-filters="sRGB">
<feFlood flood-opacity="0" result="BackgroundImageFix"/>
<feColorMatrix in="SourceAlpha" type="matrix" values="0 0 0 0 0 0 0 0 0 0 0 0 0 0 0 0 0 0 127 0"/>
<feOffset dy="4"/>
<feGaussianBlur stdDeviation="2"/>
<feColorMatrix type="matrix" values="0 0 0 0 0 0 0 0 0 0 0 0 0 0 0 0 0 0 0.25 0"/>
<feBlend mode="normal" in2="BackgroundImageFix" result="effect1_dropShadow"/>
<feBlend mode="normal" in="SourceGraphic" in2="effect1_dropShadow" result="shape"/>
</filter>
<filter id="filter1_d" x="60.207" y="62.2539" width="66.6066" height="46.8294" filterUnits="userSpaceOnUse" color-interpolation-filters="sRGB">
<feFlood flood-opacity="0" result="BackgroundImageFix"/>
<feColorMatrix in="SourceAlpha" type="matrix" values="0 0 0 0 0 0 0 0 0 0 0 0 0 0 0 0 0 0 127 0"/>
<feOffset dy="4"/>
<feGaussianBlur stdDeviation="2"/>
<feColorMatrix type="matrix" values="0 0 0 0 0 0 0 0 0 0 0 0 0 0 0 0 0 0 0.25 0"/>
<feBlend mode="normal" in2="BackgroundImageFix" result="effect1_dropShadow"/>
<feBlend mode="normal" in="SourceGraphic" in2="effect1_dropShadow" result="shape"/>
</filter>
<filter id="filter2_ddd" x="79.4531" y="73.9727" width="20.952" height="20.952" filterUnits="userSpaceOnUse" color-interpolation-filters="sRGB">
<feFlood flood-opacity="0" result="BackgroundImageFix"/>
<feColorMatrix in="SourceAlpha" type="matrix" values="0 0 0 0 0 0 0 0 0 0 0 0 0 0 0 0 0 0 127 0"/>
<feOffset dy="4"/>
<feGaussianBlur stdDeviation="2"/>
<feColorMatrix type="matrix" values="0 0 0 0 0 0 0 0 0 0 0 0 0 0 0 0 0 0 0.25 0"/>
<feBlend mode="normal" in2="BackgroundImageFix" result="effect1_dropShadow"/>
<feColorMatrix in="SourceAlpha" type="matrix" values="0 0 0 0 0 0 0 0 0 0 0 0 0 0 0 0 0 0 127 0"/>
<feOffset dy="4"/>
<feGaussianBlur stdDeviation="2"/>
<feColorMatrix type="matrix" values="0 0 0 0 0 0 0 0 0 0 0 0 0 0 0 0 0 0 0.25 0"/>
<feBlend mode="normal" in2="effect1_dropShadow" result="effect2_dropShadow"/>
<feColorMatrix in="SourceAlpha" type="matrix" values="0 0 0 0 0 0 0 0 0 0 0 0 0 0 0 0 0 0 127 0"/>
<feOffset dy="4"/>
<feGaussianBlur stdDeviation="2"/>
<feColorMatrix type="matrix" values="0 0 0 0 0 0 0 0 0 0 0 0 0 0 0 0 0 0 0.25 0"/>
<feBlend mode="normal" in2="effect2_dropShadow" result="effect3_dropShadow"/>
<feBlend mode="normal" in="SourceGraphic" in2="effect3_dropShadow" result="shape"/>
</filter>
</defs>
</svg>
