<svg xmlns="http://www.w3.org/2000/svg" width="20" height="20" viewBox="0 0 20 20">
    <g fill="none" fill-rule="evenodd">
        <g fill="#626264" fill-rule="nonzero">
            <g>
                <g>
                    <path d="M13.172 19.5c2-.688 3.633-1.898 4.898-3.633 1.266-1.734 1.899-3.695 1.899-5.883 0-1.312-.25-2.586-.75-3.82S18 3.844 17.062 2.906C16.125 1.97 15.04 1.25 13.806.75 12.57.25 11.297 0 9.985 0c-1.313 0-2.587.25-3.82.75-1.235.5-2.321 1.219-3.259 2.156C1.97 3.844 1.25 4.93.75 6.164.25 7.398 0 8.672 0 9.984c0 2.188.633 4.149 1.898 5.883 1.266 1.735 2.915 2.945 4.946 3.633.218.031.383-.008.492-.117.11-.11.164-.242.164-.399v-1.687c-1.156.25-2.063.094-2.719-.469-.294-.214-.497-.463-.608-.746l-.048-.145c-.125-.343-.297-.64-.516-.89-.125-.188-.265-.328-.421-.422L3 14.485c-.25-.188-.375-.329-.375-.422 0-.094.078-.141.234-.141l.235-.047c.406.031.781.219 1.125.563.15.124.26.25.33.374l.045.094c.406.656.937 1.016 1.593 1.078.407.032.86-.046 1.36-.234.062-.594.266-1.047.61-1.36-1.376-.156-2.407-.53-3.095-1.124-.968-.813-1.453-2.079-1.453-3.797 0-1.031.344-1.922 1.032-2.672-.125-.281-.188-.594-.188-.938-.062-.562.031-1.14.281-1.734h.282c.25 0 .546.063.89.188.5.187 1.032.468 1.594.843.781-.218 1.61-.328 2.484-.328.875 0 1.704.11 2.485.328.812-.531 1.515-.86 2.11-.984.26-.052.455-.072.585-.059l.07.012c.25.594.344 1.172.282 1.734 0 .344-.063.657-.188.938.688.75 1.031 1.64 1.031 2.672 0 1.75-.484 3.015-1.453 3.797-.719.593-1.75.968-3.094 1.125.438.406.657 1.03.657 1.875v2.718c0 .157.054.29.164.399.11.11.289.148.539.117z" transform="translate(-358 -1497) translate(0 1332) translate(358 165)"/>
                </g>
            </g>
        </g>
    </g>
</svg>
