<?xml version="1.0" encoding="utf-8"?>
<!-- Generator: Adobe Illustrator 27.0.1, SVG Export Plug-In . SVG Version: 6.00 Build 0)  -->
<svg version="1.1" id="Layer_1" xmlns="http://www.w3.org/2000/svg" xmlns:xlink="http://www.w3.org/1999/xlink" x="0px" y="0px"
	 viewBox="0 0 2298 854" style="enable-background:new 0 0 2298 854;" xml:space="preserve">
<style type="text/css">
	.st0{fill:#FFFFFF;}
	.st1{fill:#282524;}
	.st2{fill:#5B5754;}
	.st3{fill:#AA988F;}
	.st4{fill:#29367B;}
	.st5{fill:#4396D2;}
	.st6{fill:#F05681;}
</style>
<g>
	<g>
		<path class="st4" d="M1917.07,707.7c-6.6,0-11.81,1.37-15.24,4.81l-3.99,3.98h-1.19h-3.77c-3.73-5.86-10.29-8.79-19.77-8.79
			c-6.6,0-11.81,1.37-15.24,4.81l-3.98,3.98h-3.98l-1.91-7.42h-13.74v72.26h18.55V737.1c0-8.51,4.4-12.91,13.18-12.91
			c8.24,0,12.09,3.98,12.09,12.91v44.23h18.54v-44.5l0.14,0.16c0.04-8.45,4.43-12.81,13.18-12.81c8.24,0,12.09,3.98,12.09,12.91
			v44.23h18.54v-49.18C1940.55,715.81,1932.86,707.7,1917.07,707.7z M2035.93,765.67h19.92v-41.08h-17.58v-15.52h30.9l1.79,7.42
			h4.12l3.98-3.98c3.3-3.44,8.52-4.81,15.24-4.81h11.68v16.62h-18.27c-8.79,0-13.32,4.25-13.32,12.09v29.26h23.07v15.66h-61.52
			L2035.93,765.67L2035.93,765.67z M1984.68,768.83c9.48,0,14.84-4.94,14.84-13.6v-4.54h-14.15c-7.83,0-11.81,3.3-11.81,9.34
			C1973.54,765.4,1976.71,768.83,1984.68,768.83z M1954.74,761.82c0-14.29,9.48-21.84,25.96-21.84h18.82v-5.36
			c0-8.93-3.99-12.64-12.22-12.64c-7,0-11.95,2.75-12.5,9.48h-16.76c0.55-14.97,10.98-23.77,30.76-23.77
			c19.78,0,29.25,8.51,29.25,26.1v47.53h-14.28l-1.79-7.42h-3.98l-3.98,3.98c-3.3,3.3-8.51,4.81-15.52,4.81
			C1962.98,782.71,1954.74,775.29,1954.74,761.82z M1776.94,750.97h-8.1v30.35h-18.54V679.67h18.54v54.8h8.37l18.95-25.41h21.15
			l-24.58,33.66l25.4,38.6h-21.83L1776.94,750.97z M1664.51,745.2c0-25.42,11.81-37.5,34.33-37.5c20.59,0,31.45,10.17,32,28.98
			h-17.99c-0.82-9.2-5.49-13.32-14.01-13.32c-10.58,0-15.24,6.33-15.24,21.84c0,15.52,4.67,21.84,15.24,21.84
			c8.65,0,13.46-4.12,14.15-14.15h18.27c-0.55,19.5-11.68,29.81-32.41,29.81C1676.32,782.71,1664.51,770.48,1664.51,745.2z
			 M1630.9,736.69c-0.28-9.89-5.09-15.25-14.7-15.25c-9.19,0-14.28,4.81-15.92,15.25H1630.9z M1581.59,745.2
			c0-25.42,11.95-37.5,34.61-37.5c23.49,0,34.34,12.64,31.73,40.66h-48.07c0.69,14.29,5.77,20.33,16.48,20.33
			c7.82,0,13.05-3.16,14.28-9.61h17.03c-1.64,14.97-13.05,23.63-31.86,23.63C1593.41,782.71,1581.59,770.48,1581.59,745.2z
			 M1500.69,679.67h18.54v24.05l-1.64,11.81l3.85,0.96l3.98-3.98c3.43-3.43,8.24-4.81,14.69-4.81c15.52,0,22.94,8.11,22.94,24.45
			v49.18h-18.54v-44.23c0-8.93-3.85-12.91-12.09-12.91c-8.79,0-13.19,4.4-13.19,12.91v44.23h-18.54V679.67z M1412.37,733.94
			c0-34.49,11.12-49.59,36.53-49.59c22.8,0,33.78,12.36,34.74,38.19h-18.82c-0.69-14.29-5.63-20.88-15.93-20.88
			c-12.09,0-16.89,8.93-16.89,32.28c0,24.04,4.53,32.28,16.89,32.28c10.58,0,15.38-5.91,16.21-21.15h19.09
			c-1.1,26.1-12.49,38.47-35.3,38.47C1423.49,783.53,1412.37,768.42,1412.37,733.94z"/>
		<path class="st5" d="M2200.64,689.2l-41.28,44.68c-0.85,0.85-2.4,0.86-3.2,0.09l-21.21-24.6l-0.11-0.12
			c-1.83-1.84-4.35-2.81-6.93-2.69c-2.59,0.12-5.04,1.34-6.7,3.35c-1.49,1.8-2.2,4.1-2.01,6.48c0.18,2.3,1.17,4.46,2.87,6.15
			l24.38,21.01c0.42,0.43,0.66,1.01,0.66,1.62c0,0.61-0.24,1.18-0.59,1.56l-24.38,21l-0.11,0.11c-1.76,1.76-2.78,4.21-2.82,6.72
			c-0.04,2.63,0.97,5.04,2.84,6.78c0.87,0.8,1.86,1.43,2.96,1.85c2.17,0.83,4.63,0.81,6.78-0.06c1.15-0.46,2.17-1.15,3.11-2.09
			l21.2-24.59c0.87-0.84,2.38-0.84,3.17-0.07l21.22,24.61l0.11,0.11c0.88,0.88,1.9,1.56,3.05,2.02c1.1,0.45,2.27,0.68,3.47,0.68
			c1.14,0,2.26-0.21,3.32-0.62c1.1-0.42,2.1-1.05,2.95-1.85c1.87-1.73,2.88-4.15,2.84-6.78c-0.04-2.5-1.07-4.95-2.88-6.77
			L2169,746.79c-0.42-0.43-0.66-1.01-0.66-1.62c0-0.62,0.23-1.2,0.61-1.57l44.62-41.24c1.64-1.64,2.63-3.79,2.81-6.09
			c0.19-2.39-0.53-4.68-2.02-6.49c-1.66-2.01-4.11-3.23-6.7-3.35c-0.14-0.01-0.28-0.01-0.42-0.01
			C2204.8,686.42,2202.43,687.41,2200.64,689.2z"/>
		<path class="st6" d="M2216.36,696.28c0.19-2.39-0.52-4.68-2.01-6.49c-1.66-2.02-4.11-3.23-6.7-3.35
			c-0.14-0.01-0.28-0.01-0.42-0.01c-2.42,0-4.8,0.99-6.59,2.77l-41.29,44.68c-0.85,0.85-2.4,0.86-3.2,0.09l-21.21-24.6l-0.11-0.12
			c-1.83-1.84-4.34-2.81-6.93-2.69c-2.6,0.12-5.04,1.34-6.7,3.35c-1.49,1.8-2.2,4.1-2.02,6.48c0.18,2.29,1.17,4.46,2.87,6.14
			l18.63,16.05l7.07,6.09c5.89,5.08,14.66,4.93,20.37-0.35l5.47-5.05l39.94-36.92C2215.18,700.72,2216.18,698.56,2216.36,696.28z"/>
		<path class="st4" d="M1261.09,784.54c-5.12,0-9.62-1.19-13.51-3.56c-3.89-2.37-6.78-5.6-8.68-9.68l-1.71,11.53h-14.37V679.67
			h17.07v43.11c1.9-3.89,4.74-6.97,8.53-9.25c3.79-2.37,8.25-3.56,13.37-3.56c5.69,0,10.67,1.57,14.94,4.7
			c4.36,3.13,7.73,7.54,10.1,13.23c2.37,5.6,3.56,12.05,3.56,19.35c0,7.4-1.23,13.94-3.7,19.64c-2.37,5.6-5.78,9.96-10.24,13.09
			C1272.09,783.02,1266.97,784.54,1261.09,784.54z M1255.68,771.44c5.31,0,9.44-2.13,12.38-6.4c3.03-4.27,4.55-10.2,4.55-17.78
			c0-7.49-1.47-13.38-4.41-17.64c-2.94-4.36-7.11-6.54-12.52-6.54c-5.03,0-9.01,1.99-11.95,5.98c-2.84,3.89-4.27,9.2-4.27,15.93
			v4.84c0,6.64,1.42,11.9,4.27,15.79C1246.58,769.5,1250.56,771.44,1255.68,771.44z"/>
		<path class="st4" d="M1308.45,811.28c-1.9,0-4.5-0.24-7.82-0.71v-13.52c1.71,0.38,3.7,0.57,5.97,0.57c4.17,0,7.44-0.9,9.81-2.7
			c2.47-1.71,4.36-4.55,5.69-8.54l1.42-4.27l-27.74-70.43h18.78l15.5,46.53c1.04,2.94,1.71,5.74,1.99,8.39h0.28
			c0.28-1.23,1-4.03,2.13-8.39l14.22-46.53h17.64l-26.6,75.13c-3.13,8.82-7.21,15.08-12.23,18.78
			C1322.58,809.39,1316.23,811.28,1308.45,811.28z"/>
	</g>
	<path class="st4" d="M212.65,42.72v231.73L470.24,66.14c8.91-7.24,16.73-15.06,23.42-23.43h211.6c-1.67,2.8-3.91,5.44-6.69,7.95
		c-2.8,2.51-5.58,4.89-8.36,7.11L379.08,298.71c-3.34,2.8-5.02,5.86-5.02,9.2c0,3.34,1.67,6.42,5.02,9.2l333.7,270.22
		c3.89,3.35,7.65,6.69,11.29,10.04c3.62,3.35,7.11,6.98,10.45,10.88H508.71c-5.58-6.69-13.94-14.5-25.09-23.43L212.65,358.11v250.14
		H59.59V42.72H212.65z"/>
	<path class="st4" d="M925.82,42.72v565.53H773.6V42.72H925.82z"/>
	<path class="st4" d="M1561.2,608.25h-296.07c-50.74,0-94.79-8.22-132.14-24.68c-37.36-16.44-69.14-38.9-95.34-67.34
		c-22.87-25.1-40.71-53.81-53.53-86.17c-12.83-32.34-19.24-67.2-19.24-104.57c0-41.27,8.08-79.75,24.25-115.45
		c16.16-35.69,38.47-66.64,66.91-92.86c25.09-23.43,54.78-41.69,89.07-54.8c34.29-13.1,74.29-19.66,120.02-19.66h296.07v149.75
		h-296.07c-25.65,0-46.84,3.35-63.56,10.04c-16.73,6.69-31.23,15.62-43.49,26.77c-12.84,12.28-23,26.77-30.53,43.5
		c-7.53,16.73-11.29,34.59-11.29,53.54c0,17.3,3.06,33.61,9.19,48.94c6.13,15.35,14.77,28.86,25.93,40.57
		c12.26,13.38,27.6,23.98,46,31.79c18.4,7.82,40.98,11.71,67.75,11.71h296.07V608.25z"/>
	<path class="st4" d="M2211.65,192.47h-406.47c-9.49,0-16.87,0.98-22.16,2.93c-5.31,1.96-9.62,4.6-12.96,7.95
		c-7.82,7.82-11.71,17.57-11.71,29.28c0,12.27,4.73,22.31,14.22,30.12c3.34,2.8,7.38,4.89,12.13,6.27
		c4.73,1.4,11.57,2.09,20.49,2.09h248.39c31.78,0,58.68,4.6,80.71,13.8c22.02,9.2,40.56,21.62,55.61,37.23
		c15.06,15.62,26.9,33.46,35.55,53.54c8.64,20.08,12.96,41.28,12.96,63.58c0,20.64-3.76,40.44-11.29,59.4
		c-7.53,18.97-17.71,35.97-30.53,51.03c-15.62,17.85-34.99,32.08-58.13,42.66c-23.14,10.6-51.44,15.89-84.89,15.89h-438.24V463.52
		h411.48c11.71,0,20.76-1.25,27.18-3.77c6.41-2.51,11.57-5.99,15.48-10.46c6.13-7.24,9.2-15.89,9.2-25.93
		c0-12.26-3.91-22.3-11.71-30.12c-3.9-4.46-8.78-7.66-14.63-9.62c-5.86-1.95-14.36-2.93-25.51-2.93h-230
		c-37.92,0-68.45-4.6-91.58-13.8c-23.14-9.2-42.23-21.61-57.29-37.23c-15.06-15.61-26.77-33.32-35.13-53.12
		c-8.36-19.79-12.54-41.41-12.54-64.84c0-22.86,4.32-44.34,12.96-64.42c8.64-20.08,20.49-37.92,35.55-53.54
		c15.05-15.61,34-28.02,56.87-37.23c22.86-9.2,53.24-13.8,91.16-13.8h414.83V192.47z"/>
</g>
</svg>
