<svg width="313" height="310" viewBox="0 0 313 310" fill="none" xmlns="http://www.w3.org/2000/svg">
<g filter="url(#filter0_d)">
<path fill-rule="evenodd" clip-rule="evenodd" d="M47.0502 217.119C48.0053 219.252 50.1246 220.625 52.462 220.625C56.7918 220.625 59.6615 216.135 57.8434 212.206L35.2869 163.455C33.9721 160.613 34.0642 157.319 35.5359 154.556L56.9714 114.298C59.0274 110.437 56.2292 105.777 51.8547 105.777C49.7209 105.777 47.7596 106.949 46.7491 108.829L25.068 149.152C24.2644 150.646 22.7047 151.578 21.0079 151.578C18.462 151.578 16.3981 149.514 16.3981 146.968V65.3846C16.3981 62.1433 13.7705 59.5156 10.5291 59.5156C7.28779 59.5156 4.66016 62.1433 4.66016 65.3846V214.756C4.66016 217.998 7.28779 220.625 10.5291 220.625C13.7705 220.625 16.3981 217.998 16.3981 214.756V170.227C16.3981 167.681 18.4616 165.618 21.007 165.618C22.8238 165.618 24.4712 166.685 25.2136 168.343L47.0502 217.119ZM89.9296 105.547C86.5611 105.547 83.8304 108.278 83.8304 111.646V214.526C83.8304 217.895 86.5611 220.625 89.9296 220.625C93.298 220.625 96.0287 217.894 96.0287 214.526V111.646C96.0287 108.278 93.298 105.547 89.9296 105.547ZM137.149 186.562C137.149 190.245 137.763 193.62 138.991 196.689C140.372 199.604 142.213 202.136 144.514 204.284C146.816 206.432 149.424 208.12 152.34 209.348C155.408 210.422 158.631 210.959 162.006 210.959C163.541 210.959 165.459 210.805 167.76 210.498C170.062 210.038 172.287 209.578 174.435 209.117C175.36 208.9 176.295 208.672 177.24 208.435C180.202 207.692 183.271 209.291 184.275 212.176C185.323 215.192 183.739 218.516 180.66 219.361C179.56 219.662 178.482 219.93 177.427 220.165C174.972 220.779 172.287 221.316 169.371 221.776C166.609 222.236 164.154 222.466 162.006 222.466C156.943 222.466 152.186 221.623 147.737 219.935C143.44 218.093 139.604 215.562 136.229 212.34C133.007 209.117 130.398 205.358 128.403 201.062C126.562 196.612 125.642 191.779 125.642 186.562V138.459C125.642 133.242 126.562 128.486 128.403 124.19C130.398 119.74 133.007 115.981 136.229 112.912C139.451 109.843 143.21 107.465 147.506 105.777C151.956 103.936 156.713 103.015 161.776 103.015C164.231 103.015 166.763 103.322 169.371 103.936C172.133 104.55 174.665 105.24 176.966 106.007C178.197 106.349 179.413 106.722 180.614 107.124C183.159 107.979 184.479 110.716 183.757 113.302C182.943 116.22 179.853 117.851 176.928 117.063C176.332 116.902 175.731 116.746 175.125 116.594C172.977 115.981 170.752 115.444 168.451 114.983C166.149 114.523 163.924 114.293 161.776 114.293C155.025 114.293 149.194 116.518 144.284 120.967C139.528 125.264 137.149 131.094 137.149 138.459V186.562ZM262.319 214.411C267.996 208.734 270.834 200.218 270.834 188.864C270.834 182.726 269.914 177.663 268.072 173.673C266.231 169.684 263.699 166.615 260.477 164.467C257.409 162.165 253.726 160.631 249.43 159.864C245.134 158.943 240.607 158.483 235.851 158.483C233.702 158.483 231.401 158.099 228.946 157.332C226.644 156.412 224.419 155.107 222.271 153.419C220.123 151.578 218.359 149.43 216.978 146.975C215.597 144.52 214.906 141.681 214.906 138.459C214.906 130.787 216.901 124.88 220.89 120.737C225.033 116.441 229.79 114.293 235.16 114.293H236.311C236.608 114.293 236.894 114.304 237.168 114.327C237.983 114.396 238.799 114.505 239.608 114.623C240.132 114.7 240.72 114.82 241.374 114.983C242.755 115.29 244.52 115.827 246.668 116.594C247.877 116.917 249.277 117.345 250.867 117.879C253.566 118.786 256.544 117.551 257.694 114.946C258.951 112.102 257.538 108.788 254.616 107.726L252.422 106.928C249.353 105.854 246.361 105.01 243.446 104.396C240.684 103.629 237.999 103.245 235.39 103.245C226.491 103.245 218.972 106.161 212.835 111.991C206.851 117.669 203.859 126.108 203.859 137.309C203.859 143.599 204.703 148.816 206.391 152.959C208.078 157.102 210.457 160.478 213.525 163.086C216.748 165.541 220.584 167.306 225.033 168.38C229.483 169.3 234.47 169.761 239.993 169.761C241.988 169.761 244.136 170.144 246.438 170.911C248.893 171.525 251.041 172.599 252.882 174.134C254.877 175.515 256.488 177.356 257.715 179.657C259.096 181.959 259.787 184.721 259.787 187.943C259.787 195.768 257.946 201.752 254.263 205.895C250.581 210.038 246.054 212.109 240.684 212.109C238.689 212.109 236.541 211.956 234.239 211.649C232.091 211.189 229.866 210.498 227.565 209.578L213.614 203.963C210.861 202.856 207.724 204.111 206.497 206.813C205.186 209.696 206.553 213.089 209.496 214.259L223.192 219.705C226.107 220.932 229.023 221.776 231.938 222.236C234.853 222.697 237.692 222.927 240.454 222.927C249.353 222.927 256.641 220.088 262.319 214.411ZM300.18 223.016C304.736 223.016 308.43 219.322 308.43 214.766C308.43 210.209 304.736 206.516 300.18 206.516C295.624 206.516 291.93 210.209 291.93 214.766C291.93 219.322 295.624 223.016 300.18 223.016Z" fill="#9D4DF6"/>
</g>
<path d="M92.8889 64.5117C111.42 58.7918 128.021 59.4991 130.762 66.6588C133.826 74.6534 118.668 88.2239 97.6552 96.2885C76.6421 104.353 56.2953 104.399 53.2169 96.4093C50.1533 88.4147 65.3109 74.8443 86.324 66.7797C88.5288 65.9381 90.7122 65.1836 92.8889 64.5117Z" fill="#52B469"/>
<path opacity="0.2" d="M108.365 68.8414C110.654 68.7341 112.905 69.2747 114.679 70.445C115.403 70.9265 116.025 71.5332 116.522 72.1971C111.33 70.5472 101.526 71.9058 91.2126 76.1276C79.6599 80.8584 71.1194 87.6723 69.8391 92.7161C69.4818 92.3226 69.1441 91.8922 68.8928 91.4327C68.595 90.883 68.4078 90.2809 68.4307 89.6835C68.8607 91.0051 69.504 91.1055 69.504 91.1055C72.2805 80.9449 100.313 68.5501 112.369 70.3932C111.298 69.4998 109.998 68.88 108.365 68.8414Z" fill="#231F20"/>
<path opacity="0.2" d="M93.7448 67.2723C91.5829 67.9396 89.3847 68.6986 87.1946 69.5357C67.694 77.0207 53.2436 89.2292 53.7046 97.3506C53.5165 97.0542 53.3532 96.7341 53.2194 96.405C50.1558 88.4104 65.3134 74.8399 86.3265 66.7753C88.5313 65.9337 90.7147 65.1792 92.8767 64.5119C111.408 58.792 128.009 59.4993 130.75 66.659C130.976 67.2337 131.084 67.8447 131.118 68.4783C127.315 62.2102 111.408 61.8202 93.7448 67.2723Z" fill="white"/>
<path d="M67.1631 74.3731C67.1631 74.3731 84.9132 63.3046 105.231 60.1905C103.185 55.6996 86.9667 29.6161 71.2693 24.0069C55.5719 18.3977 46.041 22.0161 43.5313 32.5686C41.0216 43.1211 41.5298 41.9494 41.5298 41.9494L43.1489 42.9155C43.1489 42.9155 47.4317 42.3346 47.5662 42.1964C47.7008 42.0582 52.6292 39.6027 52.6292 39.6027C52.6292 39.6027 58.0399 39.9623 61.3945 45.6119C64.7435 51.2954 67.1631 74.3731 67.1631 74.3731Z" fill="#68E182"/>
<path d="M67.1583 74.3766C67.1583 74.3766 67.1458 74.2839 67.1298 74.1277L66.9075 63.3875C72.2322 58.6672 88.0727 52.0059 98.818 49.8169C102.2 54.6686 104.53 58.6692 105.227 60.194C84.9085 63.3082 67.1583 74.3766 67.1583 74.3766Z" fill="#5C5DF5"/>
<path d="M50.691 34.1726C52.6816 35.5073 54.3705 37.2734 55.8229 39.1608C57.2799 41.063 58.5186 43.1452 59.5073 45.3047C59.8135 45.9834 60.6149 46.2837 61.2937 45.9775C61.9724 45.6714 62.2727 44.8699 61.9665 44.1912C61.9529 44.1471 61.9246 44.1075 61.8963 44.0679C60.5827 41.8477 59.0271 39.7827 57.2624 37.9272C55.5022 36.0865 53.5192 34.4111 51.2334 33.2159C50.9639 33.0735 50.6257 33.1779 50.4833 33.4474C50.3658 33.6931 50.4419 33.9918 50.691 34.1726Z" fill="#231F20"/>
<path d="M59.8606 41.0941C58.7959 39.9407 57.6227 39.0625 56.3591 38.3088C55.7296 37.9393 55.0651 37.6129 54.3745 37.3589C53.6693 37.1094 52.929 36.903 52.094 37.0157C51.8937 37.0453 51.7581 37.2322 51.7877 37.4324C51.8082 37.6033 51.9418 37.7231 52.107 37.7366L52.1557 37.7377C52.7046 37.7938 53.2922 38.0795 53.8244 38.4469C54.352 38.7995 54.8684 39.22 55.3351 39.6881C56.274 40.5903 57.1124 41.6363 57.6927 42.6814C58.0577 43.342 58.8749 43.5891 59.5355 43.2241C60.196 42.8591 60.4431 42.0419 60.0782 41.3813C60.0317 41.2829 59.9558 41.1936 59.8844 41.1189L59.8606 41.0941Z" fill="#231F20"/>
<path opacity="0.2" d="M100.467 59.7198C97.2596 52.7201 88.7438 34.6814 62.4546 32.0193C62.4546 32.0193 64.4019 29.1952 71.1922 28.388C71.1922 28.388 60.0049 17.0374 47.9721 27.1627L49.586 23.5717C54.3793 20.6263 61.6682 20.5995 71.2653 24.0323C85.8375 29.2317 100.876 52.1194 104.574 58.9354C103.226 59.1584 101.857 59.4199 100.467 59.7198Z" fill="white"/>
<path d="M75.628 58.0174C79.4581 56.1265 83.9298 54.2791 88.3555 52.752L91.456 62.797L78.5788 67.5772L75.628 58.0174Z" fill="#9D4DF6"/>
<path d="M91.6943 101.208C93.9739 100.504 96.2897 99.7089 98.6224 98.8117C121.767 89.9282 136.995 75.3856 133.282 65.7065C129.57 56.0275 108.532 55.4011 85.3685 64.2744C62.2242 73.158 46.9961 87.7006 50.7085 97.3796C54.0535 106.077 71.3982 107.472 91.6943 101.208ZM92.8998 64.5111C111.431 58.7912 128.032 59.4985 130.773 66.6582C133.837 74.6528 118.679 88.2233 97.6662 96.2879C76.6531 104.352 56.3062 104.399 53.2279 96.4087C50.1642 88.4141 65.3218 74.8436 86.3349 66.779C88.5397 65.9374 90.7231 65.1829 92.8998 64.5111Z" fill="#231F20"/>
<path d="M69.779 31.4327C71.5453 31.258 73.4671 31.5346 75.269 31.945C77.0755 32.37 78.838 33.018 80.5294 33.8007C82.2309 34.5642 83.8455 35.5156 85.4149 36.5293C86.2018 37.0435 86.939 37.6053 87.7011 38.1433L89.8822 39.8863L89.9444 39.9315C90.5231 40.3973 91.3774 40.2947 91.8431 39.716C92.3089 39.1373 92.175 38.8081 91.6009 38.3571C91.5771 38.3322 91.5698 37.7868 91.5461 37.7619L89.1048 36.1153C88.259 35.6192 87.4336 35.0847 86.5629 34.6124C84.8262 33.6826 83.0736 32.806 81.2092 32.1411C79.3595 31.4717 77.468 30.9279 75.5225 30.6264C73.5668 30.3441 71.6225 30.2032 69.5892 30.557C69.3448 30.6002 69.1787 30.8448 69.2219 31.0891C69.2651 31.3335 69.4758 31.494 69.71 31.4701L69.779 31.4327Z" fill="#231F20"/>
<path d="M70.2826 31.4371C73.3993 31.6188 87.6109 35.963 93.8175 44.4855L92.8007 41.1911L88.5634 36.9093L84.0625 33.9654L78.6754 32.1165L72.5814 30.7436L70.1191 30.9076L70.2826 31.4371V31.4371Z" fill="#231F20"/>
<path opacity="0.2" d="M56.213 40.7579L56.9987 39.8066L54.1267 36.0861L51.2158 33.2313C58.6418 35.9972 71.7151 48.1349 72.4012 71.4416C69.0859 73.1737 67.1405 74.3863 67.1405 74.3863C67.1405 74.3863 64.7312 51.2893 61.3618 45.6443C59.842 43.0689 57.8886 41.5938 56.213 40.7579Z" fill="#231F20"/>
<path opacity="0.2" d="M43.1277 42.9495L41.5087 41.9834C41.5087 41.9834 41.0004 43.1551 43.5101 32.6026C43.58 32.3072 43.6545 32.0265 43.7289 31.7458L45.3761 31.2373C42.799 34.578 44.2609 39.5231 47.1791 37.9135C50.0973 36.304 50.7409 34.7361 50.4234 33.916L53.7529 35.4656L55.607 38.55L54.9465 40.2197C53.5654 39.7117 52.5785 39.6458 52.5785 39.6458C52.5785 39.6458 47.6502 42.1013 47.5156 42.2395C47.4105 42.3686 43.1277 42.9495 43.1277 42.9495Z" fill="#231F20"/>
<path d="M68.4773 75.0827C69.0241 61.3022 65.5435 47.5728 59.9932 41.6989C57.9102 39.4906 55.5746 38.343 53.0634 38.2965C50.309 38.2446 47.8418 39.28 45.6969 41.3596C44.945 42.1072 44.017 42.0231 43.4158 41.6932C43.1463 41.5509 42.3118 40.9869 42.5428 39.8041C44.0132 32.6169 47.5858 23.7338 56.1951 22.1396C74.3764 18.7829 99.3853 47.7749 103.946 60.6715L106.488 59.7741C103.855 52.3393 95.823 41.4001 86.9561 33.1832C80.3974 27.1211 67.6475 17.2837 55.7333 19.4953C45.6724 21.3443 41.5846 31.2724 39.9406 39.2542C39.5316 41.2168 40.4046 43.1059 42.1459 44.0504C43.9303 45.03 46.1231 44.7236 47.5964 43.2862C49.194 41.73 51.013 40.943 53.0228 40.9831C54.7893 41.0177 56.474 41.8831 58.0337 43.5441C63.0414 48.8606 66.2998 62.0787 65.7873 74.9787L68.4773 75.0827Z" fill="#231F20"/>
<path d="M95.1757 67.7727C113.707 62.0528 128.164 61.5072 130.493 67.3308C133.096 73.8333 114.5 73.0221 93.4055 80.8232C72.3111 88.6243 57.2818 103.512 54.664 97.0138C52.0609 90.5112 67.504 77.8015 88.5984 70.0004C90.8115 69.1856 92.9991 68.4446 95.1757 67.7727Z" fill="#52B469"/>
<g filter="url(#filter1_d)">
<path d="M67.5544 89.1657C67.33 88.2215 67.2467 87.137 67.7225 86.1728C67.8026 85.9913 68.0048 85.8921 68.2068 85.9321C68.4417 85.9765 68.5965 86.2024 68.5492 86.4347L68.535 86.4858C68.3979 87.1966 68.6272 87.9691 68.9835 88.6524C69.2367 89.1233 70.6174 91.3356 70.9882 91.7359C76.2027 87.015 77.5308 83.1901 79.01 82.3006C88.9093 76.6772 89.871 76.23 95.2131 74.0259C99.5431 72.2396 108.567 71.2338 108.567 71.2338C108.567 71.2338 113.375 71.6019 116.659 71.4534C116.176 70.7666 114.5 68.3759 113.767 67.8814C111.41 66.2507 108.183 65.7639 105.221 66.4852C105.047 66.5285 104.874 66.4326 104.817 66.2661C104.757 66.0858 104.851 65.8995 105.034 65.8376C108.08 64.763 111.666 64.8665 114.652 66.5009C116.136 67.3136 117.573 68.4977 118.28 70.1287C121.321 77.1842 112.332 86.0898 98.7923 91.6797C87.8145 96.2039 76.772 98.5098 70.8001 94.1278C69.9457 93.5045 69.3123 92.6983 68.7682 91.8775C68.2241 91.0103 67.7976 90.1189 67.5544 89.1657Z" fill="#231F20"/>
</g>
<path opacity="0.2" d="M117.916 69.8862C117.235 68.349 115.794 67.258 114.295 66.5227C111.272 65.0307 107.603 65.0422 104.45 66.1501C112.003 62.9585 124.466 67.0527 120.84 75.6456C118.958 78.4381 115.972 79.9189 112.695 81.9595C117.309 77.8611 119.503 73.5278 117.916 69.8862Z" fill="#231F20"/>
<path opacity="0.2" d="M67.7222 86.18C67.5826 86.9646 67.6732 87.7862 67.8607 88.5259C68.1236 89.5352 68.554 90.4879 69.1191 91.3788C69.6793 92.255 70.3281 93.1176 71.1936 93.7924C73.267 95.4197 78.4103 95.4759 81.3798 95.7028C78.1761 96.2105 74.0284 98.3653 70.3007 96.6433C66.1436 93.9228 66.7444 89.9187 67.7222 86.18Z" fill="#231F20"/>
<g filter="url(#filter2_ddd)">
<path d="M96.1066 80.0609C96.3211 83.423 93.7694 86.3224 90.4073 86.5369C87.0452 86.7514 84.1458 84.1997 83.9313 80.8376C83.8056 78.867 84.6302 77.0553 86.0113 75.8501C86.9865 74.9991 88.2391 74.4504 89.6306 74.3616C92.9927 74.1471 95.8921 76.6988 96.1066 80.0609Z" fill="#9D4DF6"/>
</g>
<rect x="77.6055" y="75.0469" width="24.4216" height="5.69245" transform="rotate(-21.9557 77.6055 75.0469)" fill="#52B469"/>
<path d="M71.0104 91.8113L70.7654 90.418L70.3184 87.9237C70.2777 87.6966 70.5904 87.5925 70.694 87.7986L71.574 89.5501L74.0873 86.6903C83.9627 75.4537 98.5996 69.5926 113.501 70.9078L112.803 69.5121C112.713 69.3321 112.916 69.1468 113.087 69.2524L116.652 71.45C100.421 70.6886 84.678 77.1125 73.6133 89.0121L71.0104 91.8113Z" fill="#49965A"/>
<path d="M4.66016 289.247C4.74248 288.177 4.82481 286.53 4.82481 285.131V265.867H7.7061V275.911H7.7884C8.77627 274.099 10.6697 272.947 13.2217 272.947C17.1732 272.947 19.9721 276.24 19.9721 281.097C19.9721 286.777 16.3499 289.658 12.8101 289.658C10.505 289.658 8.69395 288.753 7.45912 286.695H7.37679L7.12983 289.247H4.66016ZM7.62377 282.908C7.62377 283.237 7.70608 283.649 7.7884 283.978C8.36466 285.954 10.0111 287.353 12.1515 287.353C15.1974 287.353 17.0085 284.884 17.0085 281.261C17.0085 278.051 15.3621 275.334 12.2338 275.334C10.2581 275.334 8.44698 276.651 7.7884 278.874C7.70608 279.203 7.62377 279.615 7.62377 280.027V282.908Z" fill="white"/>
<path d="M24.3356 273.359L27.7931 282.744C28.1224 283.814 28.534 285.049 28.781 286.037H28.8633C29.1926 285.049 29.5219 283.897 29.8512 282.744L32.9794 273.359H36.0254L31.6623 284.72C29.6042 290.153 28.2047 292.952 26.229 294.681C24.8295 295.916 23.43 296.41 22.6891 296.574L21.9482 294.105C22.6891 293.858 23.5947 293.446 24.5002 292.705C25.3235 292.047 26.3113 290.976 26.9699 289.495C27.1345 289.165 27.2169 289.001 27.2169 288.836C27.2169 288.671 27.1346 288.424 27.0522 288.095L21.125 273.442H24.3356V273.359Z" fill="white"/>
<path d="M100.317 292.925C94.4724 286.915 94.4724 277.366 100.317 271.356C103.199 268.557 107.068 266.993 111.101 267.075C113.653 267.075 116.206 267.652 118.428 268.804C120.569 269.792 122.38 271.356 123.697 273.332L120.486 276.295C118.346 273.25 114.888 271.521 111.184 271.521C108.303 271.438 105.586 272.509 103.61 274.567C101.552 276.542 100.482 279.341 100.564 282.14C100.482 285.022 101.552 287.738 103.61 289.714C105.668 291.69 108.385 292.76 111.184 292.678C114.888 292.76 118.428 290.949 120.651 287.903L123.944 290.784C120.816 294.818 116.041 297.123 111.019 297.041C107.068 297.123 103.199 295.641 100.317 292.925Z" fill="white"/>
<path d="M126.168 297.121V266.662H130.449V278.105C132.013 275.965 134.565 274.73 137.199 274.812C139.422 274.73 141.562 275.553 143.209 277.117C144.937 278.928 145.843 281.316 145.678 283.785V296.874H141.315V285.02C141.315 281.233 139.257 278.846 136.211 278.846C133.083 278.846 130.613 281.316 130.613 284.444C130.613 284.608 130.613 284.855 130.613 285.02V296.874L126.168 297.121Z" fill="white"/>
<path d="M168.646 287.572H151.934C152.51 291.029 155.556 293.417 159.014 293.087C161.648 293.005 164.118 292.264 166.341 290.782L168.152 293.911C165.435 295.804 162.225 296.874 158.849 296.874C153.004 297.286 147.9 292.923 147.489 286.995C147.489 286.584 147.489 286.172 147.489 285.761C147.406 282.797 148.477 279.998 150.535 277.858C152.593 275.717 155.474 274.647 158.438 274.729C161.237 274.565 164.036 275.635 166.011 277.611C168.069 279.669 169.057 282.55 168.975 285.431C168.893 286.255 168.81 286.913 168.646 287.572ZM151.934 284.197H164.447C164.283 280.986 161.566 278.516 158.438 278.681C155.145 278.681 152.428 281.068 152.017 284.361V284.197H151.934Z" fill="white"/>
<path d="M173.914 293.994C169.633 289.548 169.633 282.551 173.914 278.106C176.136 275.965 179.1 274.895 182.146 274.977C186.262 274.813 190.049 277.035 192.025 280.575L188.402 282.551C187.168 280.246 184.78 278.846 182.228 278.764C180.335 278.682 178.441 279.423 177.124 280.74C174.49 283.621 174.49 287.984 177.124 290.866C178.441 292.183 180.253 292.924 182.146 292.924C184.698 292.924 187.085 291.524 188.402 289.301L192.025 291.359C188.485 296.875 181.158 298.522 175.643 294.982C175.066 294.57 174.49 294.158 173.996 293.747V293.994H173.914Z" fill="white"/>
<path d="M207.42 297.121L199.846 287.325L197.953 289.054V297.121H193.59V266.662H197.953V283.785L206.926 275.471H212.689L202.81 284.444L213.1 297.039L207.42 297.121Z" fill="white"/>
<path d="M245.865 277.448C247.512 279.259 248.417 281.729 248.253 284.199V297.123H243.889V284.939C243.889 281.153 241.996 279.012 238.95 279.012C235.986 279.012 233.517 281.4 233.517 284.445C233.517 284.61 233.517 284.857 233.517 285.022V297.041H229.154V284.939C229.154 281.153 227.26 278.93 224.214 278.93C221.168 278.93 218.781 281.4 218.781 284.445C218.781 284.61 218.781 284.857 218.781 285.022V297.041H214.418V275.472H218.699V278.601C220.016 276.213 222.486 274.731 225.202 274.814C227.919 274.731 230.471 276.213 231.788 278.601C233.517 276.131 236.398 274.731 239.362 274.814C241.914 274.731 244.219 275.637 245.865 277.448Z" fill="white"/>
<path d="M268.009 275.473H272.454V297.041H268.256V293.666C266.444 295.889 263.81 297.123 260.929 297.123C258.048 297.206 255.249 295.971 253.355 293.913C251.297 291.773 250.227 288.891 250.392 285.928C250.309 283.046 251.379 280.247 253.355 278.107C255.331 276.049 258.13 274.979 260.929 275.061C263.728 274.979 266.444 276.296 268.256 278.519L268.009 275.473ZM266.28 291.279C268.914 288.397 268.914 283.952 266.28 281.071C265.045 279.671 263.152 278.848 261.258 278.93C259.365 278.848 257.554 279.671 256.319 281.071C253.767 284.034 253.767 288.397 256.319 291.279C257.554 292.678 259.365 293.419 261.258 293.337C263.152 293.501 265.045 292.76 266.28 291.279Z" fill="white"/>
<path d="M274.926 297.121V275.552H279.042V278.598C280.194 276.293 282.582 274.894 285.134 274.976C285.957 274.976 286.863 275.058 287.686 275.305L287.274 279.586C286.533 279.257 285.71 279.175 284.887 279.175C281.512 279.175 279.207 281.48 279.207 286.007V297.039H274.926V297.121Z" fill="white"/>
<path d="M308.43 297.123H303.326L298.551 289.303L293.612 297.123H288.426L295.835 286.01L289.167 275.555H294.271L298.634 282.881L303.161 275.555H308.265L301.268 286.257L308.43 297.123Z" fill="white"/>
<path d="M64.3447 259.831C58.6644 259.831 54.1367 264.441 54.1367 270.039V286.833C54.1367 292.513 58.7468 297.041 64.3447 297.041H81.4678C87.148 297.041 91.6758 292.431 91.6758 286.833V285.516C91.6758 283.623 90.1116 282.059 88.2182 282.059C86.3248 282.059 84.7607 283.623 84.7607 285.516V286.833C84.7607 288.727 83.2789 290.208 81.3855 290.208H64.2624C62.4513 290.208 60.8871 288.727 60.8871 286.833V270.286C60.8871 268.475 62.369 266.911 64.18 266.911H84.1844C88.3829 266.911 92.0051 270.204 88.2182 275.884C91.3465 273.415 92.4167 269.134 90.9348 265.429C89.2061 261.725 85.4193 259.502 81.3855 259.749L64.3447 259.831Z" fill="#55B948"/>
<path d="M84.1813 268.143C84.6753 269.049 84.4283 270.201 83.6051 270.86L73.8087 278.022L70.8451 274.235C69.6926 272.753 67.5522 272.424 66.0704 273.577C64.5886 274.729 64.2593 276.87 65.4118 278.351L70.4335 284.855C71.586 286.337 73.6441 286.666 75.2082 285.513L86.651 277.199C86.651 277.199 88.2974 275.964 88.4621 275.799C92.2489 270.119 88.4621 266.826 84.4283 266.826H82.6172C83.3581 266.991 83.9344 267.485 84.2637 268.143" fill="#55B948"/>
<defs>
<filter id="filter0_d" x="0.660156" y="59.5156" width="311.77" height="171.5" filterUnits="userSpaceOnUse" color-interpolation-filters="sRGB">
<feFlood flood-opacity="0" result="BackgroundImageFix"/>
<feColorMatrix in="SourceAlpha" type="matrix" values="0 0 0 0 0 0 0 0 0 0 0 0 0 0 0 0 0 0 127 0"/>
<feOffset dy="4"/>
<feGaussianBlur stdDeviation="2"/>
<feColorMatrix type="matrix" values="0 0 0 0 0 0 0 0 0 0 0 0 0 0 0 0 0 0 0.25 0"/>
<feBlend mode="normal" in2="BackgroundImageFix" result="effect1_dropShadow"/>
<feBlend mode="normal" in="SourceGraphic" in2="effect1_dropShadow" result="shape"/>
</filter>
<filter id="filter1_d" x="60.2969" y="62.2539" width="66.6066" height="46.8294" filterUnits="userSpaceOnUse" color-interpolation-filters="sRGB">
<feFlood flood-opacity="0" result="BackgroundImageFix"/>
<feColorMatrix in="SourceAlpha" type="matrix" values="0 0 0 0 0 0 0 0 0 0 0 0 0 0 0 0 0 0 127 0"/>
<feOffset dy="4"/>
<feGaussianBlur stdDeviation="2"/>
<feColorMatrix type="matrix" values="0 0 0 0 0 0 0 0 0 0 0 0 0 0 0 0 0 0 0.25 0"/>
<feBlend mode="normal" in2="BackgroundImageFix" result="effect1_dropShadow"/>
<feBlend mode="normal" in="SourceGraphic" in2="effect1_dropShadow" result="shape"/>
</filter>
<filter id="filter2_ddd" x="79.543" y="73.9727" width="20.952" height="20.952" filterUnits="userSpaceOnUse" color-interpolation-filters="sRGB">
<feFlood flood-opacity="0" result="BackgroundImageFix"/>
<feColorMatrix in="SourceAlpha" type="matrix" values="0 0 0 0 0 0 0 0 0 0 0 0 0 0 0 0 0 0 127 0"/>
<feOffset dy="4"/>
<feGaussianBlur stdDeviation="2"/>
<feColorMatrix type="matrix" values="0 0 0 0 0 0 0 0 0 0 0 0 0 0 0 0 0 0 0.25 0"/>
<feBlend mode="normal" in2="BackgroundImageFix" result="effect1_dropShadow"/>
<feColorMatrix in="SourceAlpha" type="matrix" values="0 0 0 0 0 0 0 0 0 0 0 0 0 0 0 0 0 0 127 0"/>
<feOffset dy="4"/>
<feGaussianBlur stdDeviation="2"/>
<feColorMatrix type="matrix" values="0 0 0 0 0 0 0 0 0 0 0 0 0 0 0 0 0 0 0.25 0"/>
<feBlend mode="normal" in2="effect1_dropShadow" result="effect2_dropShadow"/>
<feColorMatrix in="SourceAlpha" type="matrix" values="0 0 0 0 0 0 0 0 0 0 0 0 0 0 0 0 0 0 127 0"/>
<feOffset dy="4"/>
<feGaussianBlur stdDeviation="2"/>
<feColorMatrix type="matrix" values="0 0 0 0 0 0 0 0 0 0 0 0 0 0 0 0 0 0 0.25 0"/>
<feBlend mode="normal" in2="effect2_dropShadow" result="effect3_dropShadow"/>
<feBlend mode="normal" in="SourceGraphic" in2="effect3_dropShadow" result="shape"/>
</filter>
</defs>
</svg>
